<svg id="svg" version="1.1" width="1024" height="1024" xmlns="http://www.w3.org/2000/svg"><path d="M372.000 326.648 C 370.625 326.854,366.800 327.492,363.500 328.064 C 323.932 334.926,293.313 367.407,288.017 408.135 C 287.327 413.448,287.034 434.014,287.215 464.500 L 287.500 512.500 300.500 516.670 C 327.843 525.440,380.990 542.260,417.000 553.542 C 437.625 560.003,455.099 565.760,455.831 566.335 C 456.869 567.150,457.088 571.028,456.826 583.940 C 456.450 602.407,455.585 605.453,449.701 609.040 C 446.690 610.877,444.453 610.993,411.941 610.996 C 383.706 610.999,377.027 610.741,375.441 609.584 C 373.852 608.425,373.409 606.566,373.000 599.345 L 372.500 590.523 353.500 584.684 C 343.050 581.473,324.443 575.731,312.151 571.923 C 299.859 568.115,289.168 565.000,288.394 565.000 C 287.194 565.000,287.024 574.682,287.243 630.250 L 287.500 695.500 365.500 695.778 C 446.472 696.066,457.307 695.677,471.500 691.971 C 507.244 682.639,534.300 651.931,539.925 614.308 C 540.585 609.889,541.000 587.125,541.000 555.262 L 541.000 503.408 516.250 495.677 C 502.637 491.425,478.675 483.895,463.000 478.943 C 447.325 473.991,422.800 466.298,408.500 461.849 C 394.200 457.399,381.243 453.116,379.706 452.330 C 378.169 451.545,376.015 449.462,374.918 447.701 C 373.135 444.837,372.955 443.045,373.213 430.671 L 373.500 416.841 377.235 413.421 L 380.971 410.000 418.953 410.000 L 456.934 410.000 457.217 421.213 L 457.500 432.425 497.000 445.566 C 518.725 452.793,537.513 459.028,538.750 459.421 L 541.000 460.135 541.000 393.067 L 541.000 326.000 457.750 326.136 C 411.962 326.211,373.375 326.441,372.000 326.648 M573.000 367.915 L 573.000 410.000 607.352 410.000 C 641.401 410.000,641.734 410.020,645.102 412.270 C 651.313 416.419,652.105 419.410,651.784 437.500 C 651.517 452.554,651.358 453.699,649.099 456.867 C 644.260 463.651,642.417 463.953,605.750 463.978 L 573.000 464.000 573.000 506.451 L 573.000 548.901 606.750 549.201 C 638.401 549.481,640.711 549.624,643.895 551.500 C 645.763 552.600,648.238 554.770,649.395 556.323 C 651.377 558.982,651.500 560.362,651.500 580.000 C 651.500 602.932,651.393 603.376,644.617 608.438 C 641.984 610.405,640.233 610.523,606.682 611.000 L 571.507 611.500 570.769 617.415 C 569.021 631.421,562.505 648.384,553.982 661.119 C 548.240 669.698,531.886 685.568,523.706 690.500 C 520.057 692.700,517.055 694.837,517.036 695.250 C 516.983 696.357,644.239 696.102,652.904 694.977 C 679.030 691.586,699.737 680.143,715.671 660.289 C 725.574 647.950,732.826 632.640,735.576 618.265 C 737.339 609.055,737.580 558.896,735.901 550.799 C 733.061 537.104,720.505 517.507,708.504 508.042 L 702.852 503.583 705.676 501.574 C 716.136 494.133,727.559 480.381,733.235 468.393 L 736.500 461.500 736.500 432.500 C 736.500 405.256,736.362 403.022,734.213 395.605 C 724.626 362.503,698.755 337.659,664.658 328.808 C 657.141 326.857,653.221 326.657,614.750 326.260 L 573.000 325.830 573.000 367.915 " stroke="none" fill="#0e1825" fill-rule="evenodd"/></svg>